<?xml version="1.0" encoding="UTF-8" standalone="no"?>
<!-- Created with Inkscape (http://www.inkscape.org/) -->

<svg
   width="959.737"
   height="959.737"
   id="svg9616"
   version="1.1"
   inkscape:version="1.2 (dc2aedaf03, 2022-05-15)"
   sodipodi:docname="Gameboy.svg"
   xmlns:inkscape="http://www.inkscape.org/namespaces/inkscape"
   xmlns:sodipodi="http://sodipodi.sourceforge.net/DTD/sodipodi-0.dtd"
   xmlns:xlink="http://www.w3.org/1999/xlink"
   xmlns="http://www.w3.org/2000/svg"
   xmlns:svg="http://www.w3.org/2000/svg"
   xmlns:rdf="http://www.w3.org/1999/02/22-rdf-syntax-ns#"
   xmlns:cc="http://creativecommons.org/ns#"
   xmlns:dc="http://purl.org/dc/elements/1.1/">
  <defs
     id="defs9618">
    <linearGradient
       inkscape:collect="always"
       id="linearGradient10637">
      <stop
         style="stop-color:#5c3566;stop-opacity:1"
         offset="0"
         id="stop10639" />
      <stop
         style="stop-color:#5c3566;stop-opacity:0;"
         offset="1"
         id="stop10641" />
    </linearGradient>
    <linearGradient
       inkscape:collect="always"
       id="linearGradient10629">
      <stop
         style="stop-color:#5c3566;stop-opacity:1"
         offset="0"
         id="stop10631" />
      <stop
         style="stop-color:#0a0000;stop-opacity:1"
         offset="1"
         id="stop10633" />
    </linearGradient>
    <linearGradient
       inkscape:collect="always"
       id="linearGradient10619">
      <stop
         style="stop-color:#2e3436;stop-opacity:1"
         offset="0"
         id="stop10621" />
      <stop
         style="stop-color:#25292b;stop-opacity:1"
         offset="1"
         id="stop10623" />
    </linearGradient>
    <linearGradient
       inkscape:collect="always"
       id="linearGradient10603">
      <stop
         style="stop-color:#555753;stop-opacity:1;"
         offset="0"
         id="stop10605" />
      <stop
         style="stop-color:#3c3d3b;stop-opacity:1"
         offset="1"
         id="stop10607" />
    </linearGradient>
    <linearGradient
       inkscape:collect="always"
       id="linearGradient10475">
      <stop
         style="stop-color:#555753;stop-opacity:1"
         offset="0"
         id="stop10477" />
      <stop
         style="stop-color:#3c3e3a;stop-opacity:1"
         offset="1"
         id="stop10479" />
    </linearGradient>
    <linearGradient
       inkscape:collect="always"
       id="linearGradient10467">
      <stop
         style="stop-color:#babdb6;stop-opacity:1"
         offset="0"
         id="stop10469" />
      <stop
         style="stop-color:#aaaea6;stop-opacity:1"
         offset="1"
         id="stop10471" />
    </linearGradient>
    <linearGradient
       inkscape:collect="always"
       id="linearGradient10457">
      <stop
         style="stop-color:#ef2929;stop-opacity:1"
         offset="0"
         id="stop10459" />
      <stop
         style="stop-color:#cc0000;stop-opacity:1"
         offset="1"
         id="stop10461" />
    </linearGradient>
    <inkscape:perspective
       sodipodi:type="inkscape:persp3d"
       inkscape:vp_x="0 : 526.18097 : 1"
       inkscape:vp_y="0 : 1000 : 0"
       inkscape:vp_z="744.09448 : 526.18097 : 1"
       inkscape:persp3d-origin="372.04724 : 350.78727 : 1"
       id="perspective9624" />
    <inkscape:perspective
       id="perspective9634"
       inkscape:persp3d-origin="0.5 : 0.33321126 : 1"
       inkscape:vp_z="1 : 0.49987793 : 1"
       inkscape:vp_y="0 : 1000 : 0"
       inkscape:vp_x="0 : 0.49987793 : 1"
       sodipodi:type="inkscape:persp3d" />
    <inkscape:perspective
       id="perspective10426"
       inkscape:persp3d-origin="0.5 : 0.33321126 : 1"
       inkscape:vp_z="1 : 0.49987793 : 1"
       inkscape:vp_y="0 : 1000 : 0"
       inkscape:vp_x="0 : 0.49987793 : 1"
       sodipodi:type="inkscape:persp3d" />
    <radialGradient
       inkscape:collect="always"
       xlink:href="#linearGradient10457"
       id="radialGradient10465"
       cx="-656.09406"
       cy="216.96603"
       fx="-656.09406"
       fy="216.96603"
       r="7.5761442"
       gradientUnits="userSpaceOnUse" />
    <linearGradient
       inkscape:collect="always"
       xlink:href="#linearGradient10467"
       id="linearGradient10473"
       x1="-454.56863"
       y1="22.006586"
       x2="-437.39606"
       y2="929.505"
       gradientUnits="userSpaceOnUse" />
    <radialGradient
       inkscape:collect="always"
       xlink:href="#linearGradient10475"
       id="radialGradient10481"
       cx="-738.21222"
       cy="489.21204"
       fx="-738.21222"
       fy="489.21204"
       r="36.07143"
       gradientTransform="matrix(1,0,0,0.23762374,0,372.96365)"
       gradientUnits="userSpaceOnUse" />
    <radialGradient
       inkscape:collect="always"
       xlink:href="#linearGradient10603"
       id="radialGradient10609"
       cx="568.97723"
       cy="753.63995"
       fx="568.97723"
       fy="753.63995"
       r="46.227619"
       gradientTransform="matrix(1,0,0,0.13333332,0,653.15462)"
       gradientUnits="userSpaceOnUse" />
    <radialGradient
       inkscape:collect="always"
       xlink:href="#linearGradient10619"
       id="radialGradient10625"
       cx="-620.60938"
       cy="636.67188"
       fx="-620.60938"
       fy="636.67188"
       r="70.203125"
       gradientUnits="userSpaceOnUse"
       gradientTransform="matrix(0.20860517,-1.0987082e-8,1.1744941e-8,0.22299417,-491.14706,494.69775)" />
    <radialGradient
       inkscape:collect="always"
       xlink:href="#linearGradient10629"
       id="radialGradient10635"
       cx="-339.41125"
       cy="648.30115"
       fx="-339.41125"
       fy="648.30115"
       r="34.345184"
       gradientUnits="userSpaceOnUse" />
    <radialGradient
       inkscape:collect="always"
       xlink:href="#linearGradient10637"
       id="radialGradient10687"
       gradientUnits="userSpaceOnUse"
       cx="-334.37186"
       cy="658.71167"
       fx="-334.37186"
       fy="658.71167"
       r="30.809652" />
    <filter
       inkscape:collect="always"
       id="filter10691"
       color-interpolation-filters="sRGB"
       x="-0.032062015"
       y="-0.019177744"
       width="1.064124"
       height="1.0383555">
      <feGaussianBlur
         inkscape:collect="always"
         stdDeviation="7.3857144"
         id="feGaussianBlur10693" />
    </filter>
    <linearGradient
       inkscape:collect="always"
       xlink:href="#linearGradient10467"
       id="linearGradient10795"
       gradientUnits="userSpaceOnUse"
       x1="-454.56863"
       y1="22.006586"
       x2="-437.39606"
       y2="929.505" />
    <radialGradient
       inkscape:collect="always"
       xlink:href="#linearGradient10457"
       id="radialGradient10797"
       gradientUnits="userSpaceOnUse"
       cx="-656.09406"
       cy="216.96603"
       fx="-656.09406"
       fy="216.96603"
       r="7.5761442" />
    <radialGradient
       inkscape:collect="always"
       xlink:href="#linearGradient10637"
       id="radialGradient10799"
       gradientUnits="userSpaceOnUse"
       cx="-334.37186"
       cy="658.71167"
       fx="-334.37186"
       fy="658.71167"
       r="30.809652" />
    <radialGradient
       inkscape:collect="always"
       xlink:href="#linearGradient10629"
       id="radialGradient10801"
       gradientUnits="userSpaceOnUse"
       cx="-339.41125"
       cy="648.30115"
       fx="-339.41125"
       fy="648.30115"
       r="34.345184" />
    <radialGradient
       inkscape:collect="always"
       xlink:href="#linearGradient10619"
       id="radialGradient10803"
       gradientUnits="userSpaceOnUse"
       gradientTransform="matrix(0.20860517,-1.0987082e-8,1.1744941e-8,0.22299417,-491.14706,494.69775)"
       cx="-620.60938"
       cy="636.67188"
       fx="-620.60938"
       fy="636.67188"
       r="70.203125" />
    <radialGradient
       inkscape:collect="always"
       xlink:href="#linearGradient10603"
       id="radialGradient10805"
       gradientUnits="userSpaceOnUse"
       gradientTransform="matrix(1,0,0,0.13333332,0,653.15462)"
       cx="568.97723"
       cy="753.63995"
       fx="568.97723"
       fy="753.63995"
       r="46.227619" />
    <radialGradient
       inkscape:collect="always"
       xlink:href="#linearGradient10475"
       id="radialGradient10807"
       gradientUnits="userSpaceOnUse"
       gradientTransform="matrix(1,0,0,0.23762374,0,372.96365)"
       cx="-738.21222"
       cy="489.21204"
       fx="-738.21222"
       fy="489.21204"
       r="36.07143" />
  </defs>
  <sodipodi:namedview
     id="base"
     pagecolor="#ffffff"
     bordercolor="#666666"
     borderopacity="1.0"
     inkscape:pageopacity="0.0"
     inkscape:pageshadow="2"
     inkscape:zoom="0.86056512"
     inkscape:cx="479.9172"
     inkscape:cy="479.9172"
     inkscape:document-units="px"
     inkscape:current-layer="g10695"
     showgrid="false"
     inkscape:window-width="1920"
     inkscape:window-height="1009"
     inkscape:window-x="0"
     inkscape:window-y="0"
     inkscape:window-maximized="1"
     inkscape:showpageshadow="2"
     inkscape:pagecheckerboard="0"
     inkscape:deskcolor="#d1d1d1" />
  <metadata
     id="metadata9621">
    <rdf:RDF>
      <cc:Work
         rdf:about="">
        <dc:format>image/svg+xml</dc:format>
        <dc:type
           rdf:resource="http://purl.org/dc/dcmitype/StillImage" />
      </cc:Work>
    </rdf:RDF>
  </metadata>
  <g
     inkscape:groupmode="layer"
     id="layer3"
     inkscape:label="Layer"
     style="display:inline"
     transform="translate(745.44,-1.4936101)">
    <g
       id="g10695">
      <g
         id="g698"
         transform="translate(185.71422,-5.9036059e-5)">
        <path
           sodipodi:nodetypes="ccccaaccccc"
           id="path10689"
           d="m -707.28844,19.219325 h 512.00547 c 11.31592,0 20.42585,9.10993 20.42585,20.425852 V 866.36218 c -7.6485,18.31167 -15.577,27.14292 -27.5,36.717 -20.29712,16.29842 -45.97159,25.56657 -71.14014,32.21156 -29.10459,7.68418 -59.96532,5.4836 -89.93131,8.21429 h -343.85987 c -11.31592,0 -20.42585,-9.10993 -20.42585,-20.42585 V 39.645177 c 0,-11.315922 9.10993,-20.425852 20.42585,-20.425852 z"
           style="fill:#000000;fill-opacity:1;stroke:none;filter:url(#filter10691)" />
        <path
           style="fill:#2e3436;fill-opacity:1;stroke:none"
           d="m -707.28844,19.219325 h 512.00547 c 11.31592,0 20.42585,9.10993 20.42585,20.425852 V 866.36218 c -7.6485,18.31167 -15.577,27.14292 -27.5,36.717 -20.29712,16.29842 -45.97159,25.56657 -71.14014,32.21156 -29.10459,7.68418 -59.96532,5.4836 -89.93131,8.21429 h -343.85987 c -11.31592,0 -20.42585,-9.10993 -20.42585,-20.42585 V 39.645177 c 0,-11.315922 9.10993,-20.425852 20.42585,-20.425852 z"
           id="path10396"
           sodipodi:nodetypes="ccccaaccccc" />
        <path
           sodipodi:nodetypes="ccccaaccccc"
           id="rect9640"
           d="m -715.28844,5.2193251 h 512.00547 c 11.31592,0 20.42585,9.1099299 20.42585,20.4258519 V 852.36218 c -7.6485,18.31167 -15.577,27.14292 -27.5,36.717 -20.29712,16.29842 -45.97159,25.56657 -71.14014,32.21156 -29.10459,7.68418 -59.96532,5.4836 -89.93131,8.21429 h -343.85987 c -11.31592,0 -20.42585,-9.10993 -20.42585,-20.42585 V 25.645177 c 0,-11.315922 9.10993,-20.4258519 20.42585,-20.4258519 z"
           style="fill:url(#linearGradient10795);fill-opacity:1;stroke:none" />
        <path
           id="rect10154"
           d="m -671.71875,78.65625 c -11.23174,0 -20.28125,9.018262 -20.28125,20.25 v 323.75 c 0,11.23174 9.04951,20.28125 20.28125,20.28125 h 69.75 306.84375 13.8125 c 37.20694,0 67.15625,-29.94931 67.15625,-67.15625 v -21.75 c 0.30501,-1.23772 0.5,-2.54051 0.5,-3.875 v -255.5 c 0,-8.864698 -7.1353,-16 -16,-16 H -295.125 -664.1875 Z"
           style="fill:#888a85;fill-opacity:1;stroke:none" />
        <rect
           ry="9.1661596"
           y="122.01169"
           x="-603.0611"
           height="276.78177"
           width="301.02545"
           id="rect10161"
           style="fill:#73d216;fill-opacity:1;stroke:none" />
        <circle
           transform="translate(-0.50507627,0.25253814)"
           id="path10163"
           style="fill:url(#radialGradient10797);fill-opacity:1;stroke:none"
           cx="-656.09406"
           cy="216.96603"
           r="7.5761442" />
        <circle
           style="fill:#482a50;fill-opacity:1;stroke:none"
           id="path10445"
           transform="matrix(1.1147541,0,0,1.1147541,41.259725,-79.714678)"
           cx="-337.89603"
           cy="654.86713"
           r="30.809652" />
        <circle
           transform="matrix(1.1147541,0,0,1.1147541,37.259725,-81.714678)"
           id="path10165"
           style="fill:url(#radialGradient10799);fill-opacity:1;stroke:none"
           cx="-337.89603"
           cy="654.86713"
           r="30.809652" />
        <circle
           transform="matrix(1.1147541,0,0,1.1147541,135.20391,-122.14108)"
           id="path10447"
           style="fill:#482a50;fill-opacity:1;stroke:none"
           cx="-337.89603"
           cy="654.86713"
           r="30.809652" />
        <use
           style="fill:url(#radialGradient10801);fill-opacity:1"
           height="1052.3622"
           width="744.09448"
           transform="translate(93.944187,-42.426407)"
           id="use10167"
           xlink:href="#path10165"
           y="0"
           x="0" />
        <path
           style="fill:#555753;fill-opacity:1;stroke:none"
           d="m -639.40625,568.46875 c -1.72031,0 -3.09375,1.40469 -3.09375,3.125 v 41.21875 h -41.21875 c -1.72031,0 -3.09375,1.37344 -3.09375,3.09375 v 45.5625 c 0,1.72031 1.37344,3.09375 3.09375,3.09375 H -642.5 v 41.21875 c 0,1.72031 1.37344,3.09375 3.09375,3.09375 h 45.5625 c 1.72031,0 3.125,-1.37344 3.125,-3.09375 V 664.5625 H -549.5 c 1.72031,0 3.09375,-1.37344 3.09375,-3.09375 v -45.5625 c 0,-1.72031 -1.37344,-3.09375 -3.09375,-3.09375 h -41.21875 v -41.21875 c 0,-1.72031 -1.40469,-3.125 -3.125,-3.125 z"
           id="path10435" />
        <path
           id="rect10169"
           d="m -643.40625,566.46875 c -1.72031,0 -3.09375,1.40469 -3.09375,3.125 v 41.21875 h -41.21875 c -1.72031,0 -3.09375,1.37344 -3.09375,3.09375 v 45.5625 c 0,1.72031 1.37344,3.09375 3.09375,3.09375 H -646.5 v 41.21875 c 0,1.72031 1.37344,3.09375 3.09375,3.09375 h 45.5625 c 1.72031,0 3.125,-1.37344 3.125,-3.09375 V 662.5625 H -553.5 c 1.72031,0 3.09375,-1.37344 3.09375,-3.09375 v -45.5625 c 0,-1.72031 -1.37344,-3.09375 -3.09375,-3.09375 h -41.21875 v -41.21875 c 0,-1.72031 -1.40469,-3.125 -3.125,-3.125 z"
           style="fill:url(#radialGradient10803);fill-opacity:1;stroke:none" />
        <rect
           transform="rotate(59.487064)"
           ry="6.163682"
           y="747.47626"
           x="522.74963"
           height="12.327364"
           width="92.455238"
           id="rect10174"
           style="fill:url(#radialGradient10805);fill-opacity:1;stroke:none" />
        <use
           height="1052.3622"
           width="744.09448"
           transform="translate(139.90613,-77.27667)"
           id="use10176"
           xlink:href="#rect10174"
           y="0"
           x="0"
           style="fill:#555753" />
        <use
           height="1052.3622"
           width="744.09448"
           transform="translate(-27.274118,15.657365)"
           id="use10178"
           xlink:href="#use10176"
           y="0"
           x="0"
           style="fill:#555753" />
        <use
           height="1052.3622"
           width="744.09448"
           transform="translate(-27.779195,15.657364)"
           id="use10180"
           xlink:href="#use10178"
           y="0"
           x="0"
           style="fill:#555753" />
        <use
           height="1052.3622"
           width="744.09448"
           transform="translate(-28.284271,15.152288)"
           id="use10182"
           xlink:href="#use10180"
           y="0"
           x="0"
           style="fill:#555753" />
        <use
           height="1052.3622"
           width="744.09448"
           transform="translate(-28.789348,14.142136)"
           id="use10184"
           xlink:href="#use10182"
           y="0"
           x="0"
           style="fill:#555753" />
        <rect
           transform="rotate(-27.128161)"
           ry="8.5714283"
           y="480.64062"
           x="-774.28363"
           height="17.142857"
           width="72.14286"
           id="rect10187"
           style="fill:url(#radialGradient10807);fill-opacity:1;stroke:none" />
        <use
           height="1052.3622"
           width="744.09448"
           transform="translate(-96.428571,-0.35714289)"
           id="use10189"
           xlink:href="#rect10187"
           y="0"
           x="0" />
        <use
           style="fill:#babdb6"
           x="0"
           y="0"
           xlink:href="#rect10187"
           id="use10191"
           transform="translate(-96.428571,-0.35714289)"
           width="744.09448"
           height="1052.3622" />
        <path
           id="path10193"
           d="m -735.71429,50.933611 h 552.85715"
           style="fill:none;stroke:#555753;stroke-width:6;stroke-linecap:butt;stroke-linejoin:miter;stroke-miterlimit:4;stroke-dasharray:none;stroke-opacity:1" />
        <path
           id="path10195"
           d="M -217.14286,5.2452202 V 50.684499"
           style="fill:none;stroke:#555753;stroke-width:6;stroke-linecap:butt;stroke-linejoin:miter;stroke-miterlimit:4;stroke-dasharray:none;stroke-opacity:1" />
        <path
           id="path10197"
           d="M -688.57143,5.9336101 V 50.844323"
           style="fill:none;stroke:#555753;stroke-width:6;stroke-linecap:butt;stroke-linejoin:miter;stroke-miterlimit:4;stroke-dasharray:none;stroke-opacity:1" />
        <path
           id="path10199"
           d="m -667.85714,105.93361 h 123.57143"
           style="fill:none;stroke:#204a87;stroke-width:3;stroke-linecap:butt;stroke-linejoin:miter;stroke-miterlimit:4;stroke-dasharray:none;stroke-opacity:1" />
        <path
           style="fill:none;stroke:#5c3566;stroke-width:3;stroke-linecap:butt;stroke-linejoin:miter;stroke-miterlimit:4;stroke-dasharray:none;stroke-opacity:1"
           d="m -667.85714,95.219324 h 123.57143"
           id="path10201" />
        <path
           style="fill:none;stroke:#204a87;stroke-width:3;stroke-linecap:butt;stroke-linejoin:miter;stroke-miterlimit:4;stroke-dasharray:none;stroke-opacity:1"
           d="m -289.28571,105.93361 h 52.14286"
           id="path10203" />
        <path
           id="path10205"
           d="m -289.28571,95.219324 h 52.14286"
           style="fill:none;stroke:#5c3566;stroke-width:3;stroke-linecap:butt;stroke-linejoin:miter;stroke-miterlimit:4;stroke-dasharray:none;stroke-opacity:1" />
        <g
           id="text10215"
           style="font-style:normal;font-variant:normal;font-weight:900;font-stretch:normal;font-size:22.9049px;line-height:125%;font-family:'Arial Black';-inkscape-font-specification:'Arial Black Heavy';text-align:start;writing-mode:lr-tb;text-anchor:start;fill:#204a87;fill-opacity:1;stroke:none"
           transform="matrix(0.98931535,-0.50940549,0.41139519,0.79896974,0,0)">
          <path
             style="fill:#204a87"
             id="path10256"
             d="m -546.82805,534.18633 h 9.48407 c 1.58067,2e-5 2.79414,0.39146 3.64041,1.17433 0.84624,0.7829 1.26937,1.75218 1.26939,2.90785 -2e-5,0.9693 -0.30198,1.80065 -0.90591,2.49405 -0.40264,0.46228 -0.99166,0.82762 -1.76708,1.09603 1.17804,0.28334 2.0448,0.76985 2.60029,1.45952 0.55546,0.68969 0.8332,1.55645 0.83322,2.60029 -2e-5,0.85 -0.19761,1.61424 -0.59276,2.29273 -0.39518,0.67851 -0.93575,1.21534 -1.62169,1.61051 -0.425,0.24605 -1.06622,0.42499 -1.92365,0.53683 -1.14079,0.14912 -1.89757,0.22368 -2.27037,0.22368 h -8.74592 z m 5.11111,6.43083 h 2.20326 c 0.79033,10e-6 1.34021,-0.13606 1.64964,-0.40821 0.30942,-0.27214 0.46413,-0.66544 0.46414,-1.17992 -10e-6,-0.47718 -0.15472,-0.84998 -0.46414,-1.11841 -0.30943,-0.2684 -0.84813,-0.40261 -1.61609,-0.40262 h -2.23681 z m 0,6.44202 h 2.58351 c 0.87235,0 1.48747,-0.15471 1.84537,-0.46414 0.35788,-0.30942 0.53682,-0.7251 0.53684,-1.24702 -2e-5,-0.48464 -0.1771,-0.87422 -0.53125,-1.16874 -0.35417,-0.2945 -0.97488,-0.44176 -1.86214,-0.44177 h -2.57233 z" />
        </g>
        <g
           id="text10219"
           style="font-style:normal;font-variant:normal;font-weight:900;font-stretch:normal;font-size:22.9049px;line-height:125%;font-family:'Arial Black';-inkscape-font-specification:'Arial Black Heavy';text-align:start;writing-mode:lr-tb;text-anchor:start;fill:#204a87;fill-opacity:1;stroke:none"
           transform="matrix(0.98931535,-0.50940549,0.41139519,0.79896974,0,0)">
          <path
             style="fill:#204a87"
             id="path10259"
             d="m -444.83792,552.7439 h -5.77097 l -0.79407,2.70654 h -5.17822 l 6.16241,-16.39582 h 5.52493 l 6.16241,16.39582 h -5.30124 z m -1.06249,-3.54535 -1.81182,-5.89399 -1.80063,5.89399 z" />
        </g>
        <g
           id="text10223"
           style="font-style:normal;font-weight:normal;font-size:14.7029px;font-family:'Bitstream Vera Sans';fill:#204a87;fill-opacity:1;stroke:none"
           transform="matrix(1.3300285,-0.63430124,0.29212783,0.61254548,0,0)">
          <path
             style="fill:#204a87"
             id="path10232"
             d="m -579.14054,734.3002 1.31378,-0.11486 c 0.0622,0.52647 0.207,0.95842 0.43434,1.29583 0.22733,0.33742 0.58031,0.61023 1.05892,0.81842 0.47861,0.2082 1.01704,0.3123 1.61531,0.3123 0.53125,0 1.00028,-0.079 1.40711,-0.23691 0.40681,-0.15794 0.70953,-0.37451 0.90816,-0.64972 0.19862,-0.27519 0.29793,-0.57552 0.29793,-0.90098 0,-0.33024 -0.0957,-0.6186 -0.28716,-0.86509 -0.19145,-0.24648 -0.50733,-0.45347 -0.94765,-0.62099 -0.28238,-0.11008 -0.90697,-0.28118 -1.87375,-0.51331 -0.9668,-0.23212 -1.64403,-0.45108 -2.0317,-0.65689 -0.50254,-0.26323 -0.87705,-0.58988 -1.12354,-0.97995 -0.24648,-0.39006 -0.36972,-0.82679 -0.36972,-1.3102 0,-0.53125 0.15076,-1.0278 0.45228,-1.48967 0.30153,-0.46185 0.74185,-0.81243 1.32097,-1.05174 0.57911,-0.2393 1.22284,-0.35895 1.93118,-0.35896 0.78013,10e-6 1.46813,0.12564 2.06401,0.3769 0.59586,0.25128 1.05413,0.62101 1.3748,1.10918 0.32066,0.48819 0.49296,1.04099 0.5169,1.65838 l -1.33532,0.10051 c -0.0718,-0.66526 -0.31469,-1.1678 -0.72868,-1.50762 -0.414,-0.3398 -1.02543,-0.50971 -1.83427,-0.50972 -0.84236,10e-6 -1.45617,0.15436 -1.84145,0.46306 -0.38529,0.30871 -0.57793,0.68083 -0.57792,1.11635 -10e-6,0.37811 0.1364,0.68921 0.40921,0.93329 0.26802,0.2441 0.96798,0.49417 2.0999,0.75022 1.1319,0.25606 1.90845,0.47981 2.32963,0.67125 0.61261,0.28239 1.0649,0.64015 1.35686,1.07328 0.29194,0.43315 0.43792,0.9321 0.43792,1.49685 0,0.55998 -0.16034,1.08765 -0.481,1.58301 -0.32067,0.49536 -0.78134,0.88064 -1.38198,1.15584 -0.60066,0.2752 -1.2767,0.4128 -2.02811,0.4128 -0.95244,0 -1.75052,-0.1388 -2.39424,-0.41639 -0.64374,-0.2776 -1.14867,-0.69518 -1.5148,-1.25276 -0.36614,-0.55758 -0.55878,-1.18815 -0.57792,-1.89171 z" />
          <path
             style="fill:#204a87"
             id="path10234"
             d="m -568.81694,737.68158 v -10.52462 h 7.60989 v 1.24199 h -6.21713 v 3.22343 h 5.82228 v 1.23482 h -5.82228 v 3.58239 h 6.46122 v 1.24199 z" />
          <path
             style="fill:#204a87"
             id="path10236"
             d="m -559.08202,737.68158 v -10.52462 h 1.39275 v 9.28263 h 5.18334 v 1.24199 z" />
          <path
             style="fill:#204a87"
             id="path10238"
             d="m -550.81165,737.68158 v -10.52462 h 7.60989 v 1.24199 h -6.21714 v 3.22343 h 5.82229 v 1.23482 h -5.82229 v 3.58239 h 6.46123 v 1.24199 z" />
          <path
             style="fill:#204a87"
             id="path10240"
             d="m -533.50992,733.9915 1.39275,0.35178 c -0.29196,1.14388 -0.81723,2.01614 -1.57582,2.6168 -0.7586,0.60065 -1.68591,0.90098 -2.78192,0.90098 -1.1343,0 -2.05682,-0.23093 -2.76755,-0.69279 -0.71074,-0.46186 -1.25157,-1.13071 -1.62249,-2.00657 -0.37092,-0.87585 -0.55638,-1.81632 -0.55638,-2.8214 0,-1.09601 0.20939,-2.05203 0.62817,-2.86807 0.41878,-0.81602 1.01465,-1.43582 1.78761,-1.8594 0.77295,-0.42356 1.62368,-0.63534 2.55218,-0.63535 1.05294,10e-6 1.93836,0.26803 2.65628,0.80406 0.71791,0.53605 1.21806,1.28986 1.50045,2.26143 l -1.37122,0.32306 c -0.2441,-0.76576 -0.59827,-1.32334 -1.06251,-1.67274 -0.46426,-0.34937 -1.04816,-0.52406 -1.75171,-0.52407 -0.80886,10e-6 -1.48489,0.19384 -2.02811,0.58151 -0.54323,0.38768 -0.92492,0.90817 -1.14508,1.56146 -0.22016,0.65331 -0.33024,1.32695 -0.33024,2.02093 0,0.895 0.13042,1.67633 0.39127,2.34399 0.26084,0.66766 0.66646,1.16661 1.21686,1.49685 0.5504,0.33024 1.14627,0.49536 1.78761,0.49536 0.78013,0 1.44061,-0.22494 1.98144,-0.67484 0.54082,-0.44989 0.90696,-1.11755 1.09841,-2.00298 z" />
          <path
             style="fill:#204a87"
             id="path10242"
             d="m -527.71635,737.68158 v -9.28263 h -3.46753 v -1.24199 h 8.34217 v 1.24199 h -3.48189 v 9.28263 z" />
        </g>
        <g
           id="text10227"
           style="font-style:normal;font-weight:normal;font-size:14.7029px;font-family:'Bitstream Vera Sans';fill:#204a87;fill-opacity:1;stroke:none"
           transform="matrix(1.3300285,-0.63430124,0.29212783,0.61254548,2.5253814,-4.0406102)">
          <path
             style="fill:#204a87"
             id="path10245"
             d="m -516.36448,796.00766 1.31378,-0.11486 c 0.0622,0.52647 0.207,0.95841 0.43434,1.29583 0.22734,0.33742 0.58031,0.61023 1.05892,0.81842 0.47861,0.2082 1.01704,0.3123 1.61531,0.3123 0.53125,0 1.00029,-0.079 1.40711,-0.23692 0.40681,-0.15794 0.70953,-0.37451 0.90816,-0.64971 0.19862,-0.2752 0.29793,-0.57552 0.29794,-0.90098 -1e-5,-0.33024 -0.0957,-0.6186 -0.28717,-0.86509 -0.19145,-0.24648 -0.50733,-0.45348 -0.94765,-0.62099 -0.28238,-0.11008 -0.90697,-0.28118 -1.87375,-0.51331 -0.9668,-0.23212 -1.64403,-0.45109 -2.0317,-0.65689 -0.50254,-0.26323 -0.87705,-0.58988 -1.12353,-0.97996 -0.24649,-0.39006 -0.36973,-0.82679 -0.36973,-1.31019 0,-0.53125 0.15076,-1.0278 0.45229,-1.48967 0.30152,-0.46185 0.74184,-0.81243 1.32096,-1.05175 0.57911,-0.23929 1.22284,-0.35894 1.93119,-0.35895 0.78012,10e-6 1.46813,0.12564 2.064,0.3769 0.59586,0.25128 1.05413,0.62101 1.37481,1.10918 0.32066,0.48819 0.49295,1.04098 0.51689,1.65838 l -1.33532,0.10051 c -0.0718,-0.66526 -0.31469,-1.1678 -0.72868,-1.50762 -0.414,-0.3398 -1.02543,-0.50971 -1.83427,-0.50972 -0.84236,1e-5 -1.45617,0.15436 -1.84145,0.46306 -0.38528,0.30871 -0.57792,0.68083 -0.57792,1.11635 0,0.37811 0.1364,0.68921 0.40921,0.93329 0.26802,0.2441 0.96798,0.49417 2.0999,0.75022 1.1319,0.25606 1.90845,0.47981 2.32963,0.67125 0.61261,0.28239 1.0649,0.64015 1.35686,1.07328 0.29194,0.43315 0.43792,0.9321 0.43793,1.49685 -10e-6,0.55998 -0.16035,1.08765 -0.48101,1.583 -0.32067,0.49537 -0.78133,0.88065 -1.38198,1.15585 -0.60066,0.2752 -1.2767,0.4128 -2.02811,0.4128 -0.95244,0 -1.75052,-0.1388 -2.39424,-0.41639 -0.64373,-0.2776 -1.14867,-0.69518 -1.5148,-1.25276 -0.36614,-0.55758 -0.55878,-1.18815 -0.57792,-1.89171 z" />
          <path
             style="fill:#204a87"
             id="path10247"
             d="m -503.39177,799.38904 v -9.28263 h -3.46753 v -1.24199 h 8.34216 v 1.24199 h -3.48188 v 9.28263 z" />
          <path
             style="fill:#204a87"
             id="path10249"
             d="m -498.23715,799.38904 4.04186,-10.52462 h 1.50044 l 4.30748,10.52462 h -1.58659 l -1.22763,-3.18754 h -4.40081 l -1.15584,3.18754 z m 3.03678,-4.32185 h 3.56803 l -1.09841,-2.91473 c -0.33503,-0.88542 -0.5839,-1.6129 -0.74663,-2.18246 -0.13401,0.67485 -0.32306,1.3449 -0.56715,2.01016 z" />
          <path
             style="fill:#204a87"
             id="path10251"
             d="m -487.2387,799.38904 v -10.52462 h 4.66644 c 0.93807,10e-6 1.65119,0.0945 2.13938,0.28357 0.48818,0.18906 0.87824,0.52289 1.1702,1.00149 0.29194,0.47862 0.43792,1.00748 0.43793,1.58659 -1e-5,0.74664 -0.24171,1.37601 -0.72509,1.88812 -0.48341,0.51211 -1.23004,0.83757 -2.2399,0.97636 0.36853,0.17709 0.64851,0.35178 0.83996,0.52408 0.40681,0.37332 0.79209,0.83996 1.15585,1.39993 l 1.83068,2.86448 h -1.75171 l -1.39276,-2.18964 c -0.40682,-0.63176 -0.74185,-1.11516 -1.00508,-1.45019 -0.26324,-0.33502 -0.49895,-0.56954 -0.70714,-0.70355 -0.2082,-0.13401 -0.41999,-0.22734 -0.63536,-0.27999 -0.15794,-0.0335 -0.41639,-0.0503 -0.77534,-0.0503 h -1.61531 v 4.67362 z m 1.39275,-5.87972 h 2.9937 c 0.63655,10e-6 1.1343,-0.0658 1.49326,-0.19743 0.35895,-0.13161 0.63176,-0.34219 0.81842,-0.63176 0.18665,-0.28955 0.27998,-0.60424 0.27999,-0.94406 -10e-6,-0.49774 -0.18068,-0.90695 -0.54202,-1.22763 -0.36136,-0.32066 -0.9321,-0.48099 -1.71223,-0.481 h -3.33112 z" />
          <path
             style="fill:#204a87"
             id="path10253"
             d="m -473.95729,799.38904 v -9.28263 h -3.46753 v -1.24199 h 8.34216 v 1.24199 h -3.48188 v 9.28263 z" />
        </g>
        <g
           id="text10261"
           style="font-style:normal;font-weight:normal;font-size:13.7494px;font-family:'Bitstream Vera Sans';fill:#eeeeec;fill-opacity:1;stroke:none"
           transform="scale(0.98465856,1.0155805)">
          <path
             id="path10266"
             d="m -539.47612,104.26973 v -9.84212 h 3.39036 c 0.76535,1e-5 1.34943,0.047 1.75225,0.140985 0.56393,0.129806 1.04507,0.364781 1.44342,0.704927 0.51918,0.43863 0.90745,0.999214 1.16481,1.681754 0.25734,0.682554 0.38602,1.462449 0.38603,2.339685 -10e-6,0.747449 -0.0873,1.409859 -0.26183,1.987219 -0.17456,0.57737 -0.39835,1.05516 -0.67136,1.43335 -0.27303,0.3782 -0.57178,0.67584 -0.89626,0.89291 -0.3245,0.21707 -0.71613,0.38156 -1.17488,0.49345 -0.45877,0.11189 -0.98578,0.16784 -1.58105,0.16784 z m 1.30244,-1.16145 h 2.10135 c 0.64898,0 1.15809,-0.0604 1.52734,-0.18127 0.36924,-0.12084 0.66352,-0.29092 0.88284,-0.51023 0.30882,-0.30882 0.54939,-0.72395 0.72171,-1.24537 0.17231,-0.52142 0.25846,-1.15362 0.25847,-1.89659 -10e-6,-1.02941 -0.16896,-1.820494 -0.50687,-2.373253 -0.33793,-0.552744 -0.74858,-0.92311 -1.23195,-1.111099 -0.34911,-0.134263 -0.91081,-0.201399 -1.68511,-0.201407 h -2.06778 z" />
          <path
             id="path10268"
             d="m -529.93611,99.476228 c 0,-1.633633 0.43862,-2.912571 1.31586,-3.836815 0.87724,-0.924228 2.0096,-1.386346 3.39708,-1.386356 0.90856,1e-5 1.72762,0.217082 2.45717,0.651218 0.72954,0.434154 1.28564,1.039495 1.66833,1.816025 0.38266,0.776545 0.574,1.657143 0.57401,2.641797 -1e-5,0.998093 -0.20142,1.890993 -0.60422,2.678723 -0.40283,0.78773 -0.97348,1.38412 -1.71197,1.78917 -0.7385,0.40505 -1.53518,0.60758 -2.39004,0.60758 -0.92648,0 -1.75448,-0.22379 -2.48402,-0.67136 -0.72955,-0.44757 -1.2823,-1.05851 -1.65826,-1.83281 -0.37596,-0.7743 -0.56394,-1.59335 -0.56394,-2.457172 z m 1.34272,0.02014 c 0,1.186072 0.31889,2.120382 0.95668,2.802922 0.63779,0.68255 1.43783,1.02382 2.40011,1.02382 0.98018,0 1.78693,-0.34463 2.42025,-1.03389 0.63331,-0.68926 0.94996,-1.6672 0.94997,-2.933838 -10e-6,-0.801149 -0.1354,-1.50048 -0.40617,-2.097996 -0.27079,-0.597502 -0.66689,-1.060739 -1.18831,-1.389713 -0.52142,-0.328957 -1.10662,-0.493439 -1.7556,-0.493448 -0.922,9e-6 -1.71532,0.316666 -2.37997,0.949972 -0.66464,0.633323 -0.99696,1.690712 -0.99696,3.172171 z" />
          <path
             id="path10270"
             d="m -516.34781,104.26973 v -8.680669 h -3.24266 V 94.42761 h 7.80119 v 1.161451 h -3.25609 v 8.680669 z" />
          <path
             id="path10272"
             d="m -506.67353,104.26973 v -9.84212 h 1.96037 l 2.32962,6.9687 c 0.21482,0.64899 0.37147,1.1346 0.46995,1.45685 0.11188,-0.35805 0.28644,-0.88395 0.52366,-1.57769 l 2.35647,-6.84786 h 1.75224 v 9.84212 h -1.25544 v -8.237573 l -2.85999,8.237573 h -1.17488 l -2.84656,-8.378558 v 8.378558 z" />
          <path
             id="path10274"
             d="m -496.24733,104.26973 3.77975,-9.84212 h 1.40314 l 4.02816,9.84212 h -1.48371 l -1.14802,-2.98083 h -4.11543 l -1.08089,2.98083 z m 2.83985,-4.04158 h 3.33666 l -1.02718,-2.725717 c -0.31331,-0.828001 -0.54605,-1.508311 -0.69822,-2.040931 -0.12532,0.631086 -0.30211,1.257687 -0.53037,1.879805 z" />
          <path
             id="path10276"
             d="m -483.47808,104.26973 v -8.680669 h -3.24267 V 94.42761 h 7.80119 v 1.161451 h -3.25609 v 8.680669 z" />
          <path
             id="path10278"
             d="m -477.5567,104.26973 v -9.84212 h 4.36384 c 0.87723,1e-5 1.54411,0.0884 2.00064,0.265187 0.45652,0.1768 0.82129,0.488982 1.09432,0.936545 0.27301,0.447581 0.40952,0.942148 0.40953,1.483703 -10e-6,0.69822 -0.22604,1.286777 -0.67807,1.765674 -0.45206,0.478907 -1.15027,0.783256 -2.09464,0.913048 0.34462,0.165606 0.60645,0.328973 0.78549,0.490093 0.38043,0.34911 0.74072,0.78549 1.08088,1.30915 l 1.71197,2.67872 h -1.63812 l -1.30243,-2.04764 c -0.38045,-0.5908 -0.69375,-1.04285 -0.93991,-1.35615 -0.24617,-0.3133 -0.4666,-0.53261 -0.66128,-0.65793 -0.1947,-0.12532 -0.39275,-0.212594 -0.59416,-0.261831 -0.1477,-0.03133 -0.38939,-0.04699 -0.72506,-0.04699 h -1.51056 v 4.370551 z m 1.30244,-5.498429 h 2.79957 c 0.59526,6e-6 1.06074,-0.06153 1.39642,-0.184623 0.33567,-0.123077 0.59079,-0.320009 0.76535,-0.590796 0.17455,-0.270775 0.26182,-0.565054 0.26183,-0.882837 -10e-6,-0.465468 -0.16897,-0.848142 -0.50688,-1.148023 -0.33792,-0.299865 -0.87165,-0.449802 -1.60119,-0.449811 h -3.1151 z" />
          <path
             id="path10280"
             d="m -467.41918,104.26973 v -9.84212 h 1.30243 v 9.84212 z" />
          <path
             id="path10282"
             d="m -464.82774,104.26973 3.80661,-5.129181 -3.3568,-4.712939 h 1.55084 l 1.78582,2.524309 c 0.37148,0.523667 0.63554,0.926481 0.7922,1.208446 0.2193,-0.358052 0.4789,-0.731775 0.77877,-1.121169 l 1.98051,-2.611586 h 1.41657 l -3.4575,4.639089 3.72604,5.203031 h -1.61126 l -2.47731,-3.51121 c -0.13875,-0.2014 -0.28198,-0.42071 -0.42967,-0.65793 -0.21932,0.35806 -0.37597,0.60423 -0.46995,0.7385 l -2.4706,3.43064 z" />
          <path
             id="path10284"
             d="m -449.11123,104.26973 -2.61159,-9.84212 h 1.33601 l 1.49713,6.45176 c 0.16112,0.67583 0.29987,1.34719 0.41624,2.01407 0.25064,-1.05179 0.39834,-1.65825 0.4431,-1.81938 l 1.87309,-6.64645 h 1.57098 l 1.40985,4.981482 c 0.35357,1.235308 0.60869,2.396758 0.76535,3.484348 0.12531,-0.62212 0.28867,-1.336 0.49009,-2.14163 l 1.54413,-6.3242 h 1.30915 l -2.69887,9.84212 h -1.25544 l -2.07449,-7.499078 c -0.17456,-0.626593 -0.27751,-1.011505 -0.30883,-1.154737 -0.10295,0.452056 -0.19918,0.836968 -0.28868,1.154737 l -2.08793,7.499078 z" />
          <path
             id="path10286"
             d="m -437.6377,104.26973 v -9.84212 h 1.30243 v 9.84212 z" />
          <path
             id="path10288"
             d="m -431.54177,104.26973 v -8.680669 h -3.24266 V 94.42761 h 7.80119 v 1.161451 h -3.25609 v 8.680669 z" />
          <path
             id="path10290"
             d="m -425.60024,104.26973 v -9.84212 h 1.30243 v 4.04158 h 5.11576 v -4.04158 h 1.30243 v 9.84212 h -1.30243 v -4.63909 h -5.11576 v 4.63909 z" />
          <path
             id="path10292"
             d="m -412.33419,101.10763 1.22858,-0.10742 c 0.0582,0.49233 0.19358,0.89627 0.40618,1.2118 0.21259,0.31555 0.54267,0.57066 0.99025,0.76535 0.44757,0.1947 0.95109,0.29205 1.51056,0.29205 0.4968,0 0.93542,-0.0738 1.31586,-0.22155 0.38043,-0.1477 0.66352,-0.35023 0.84927,-0.60758 0.18573,-0.25736 0.27861,-0.53821 0.27861,-0.84256 0,-0.30882 -0.0895,-0.57848 -0.26854,-0.80899 -0.17904,-0.23049 -0.47443,-0.42407 -0.88619,-0.58072 -0.26408,-0.10294 -0.84816,-0.262946 -1.75225,-0.480023 -0.9041,-0.217067 -1.53742,-0.421832 -1.89995,-0.614293 -0.46995,-0.246159 -0.82017,-0.551627 -1.05067,-0.916405 -0.2305,-0.364765 -0.34575,-0.773174 -0.34575,-1.225229 0,-0.496798 0.14098,-0.961154 0.42295,-1.39307 0.28197,-0.431898 0.69374,-0.759745 1.2353,-0.98354 0.54156,-0.223777 1.14355,-0.33567 1.80596,-0.33568 0.72954,1e-5 1.37292,0.117498 1.93016,0.352464 0.55722,0.234985 0.98577,0.580734 1.28565,1.037249 0.29986,0.456532 0.46099,0.973478 0.48338,1.550839 l -1.24873,0.09399 c -0.0671,-0.622118 -0.29429,-1.092069 -0.68143,-1.409854 -0.38716,-0.317767 -0.95893,-0.476655 -1.71532,-0.476664 -0.78773,9e-6 -1.36174,0.144351 -1.72204,0.433026 -0.3603,0.288693 -0.54044,0.63668 -0.54044,1.043963 0,0.353589 0.12755,0.644511 0.38267,0.872766 0.25064,0.228269 0.90522,0.462125 1.96373,0.70157 1.0585,0.239457 1.78469,0.448697 2.17856,0.627721 0.57288,0.264073 0.99584,0.598633 1.26886,1.00368 0.27302,0.40506 0.40953,0.87165 0.40953,1.39978 0,0.52367 -0.14994,1.01711 -0.44981,1.48035 -0.29988,0.46324 -0.73067,0.82353 -1.29236,1.08089 -0.56171,0.25735 -1.19391,0.38603 -1.89659,0.38603 -0.89067,0 -1.637,-0.1298 -2.23898,-0.38939 -0.60199,-0.25959 -1.07418,-0.6501 -1.41657,-1.17152 -0.34239,-0.52142 -0.52254,-1.1111 -0.54044,-1.76903 z" />
          <path
             id="path10294"
             d="m -400.20274,104.26973 v -8.680669 h -3.24266 V 94.42761 h 7.80119 v 1.161451 h -3.25609 v 8.680669 z" />
          <path
             id="path10296"
             d="m -394.27464,104.26973 v -9.84212 h 7.1164 v 1.161451 h -5.81397 v 3.014401 h 5.44472 v 1.154737 h -5.44472 v 3.350081 h 6.04223 v 1.16145 z" />
          <path
             id="path10298"
             d="m -385.09717,104.26973 v -9.84212 h 4.36383 c 0.87724,1e-5 1.54412,0.0884 2.00065,0.265187 0.45652,0.1768 0.82129,0.488982 1.09432,0.936545 0.27301,0.447581 0.40952,0.942148 0.40953,1.483703 -1e-5,0.69822 -0.22604,1.286777 -0.67807,1.765674 -0.45206,0.478907 -1.15027,0.783256 -2.09464,0.913048 0.34462,0.165606 0.60645,0.328973 0.78549,0.490093 0.38043,0.34911 0.74072,0.78549 1.08088,1.30915 l 1.71197,2.67872 h -1.63812 l -1.30243,-2.04764 c -0.38045,-0.5908 -0.69375,-1.04285 -0.93991,-1.35615 -0.24617,-0.3133 -0.4666,-0.53261 -0.66128,-0.65793 -0.1947,-0.12532 -0.39275,-0.212594 -0.59416,-0.261831 -0.1477,-0.03133 -0.38939,-0.04699 -0.72506,-0.04699 h -1.51056 v 4.370551 z m 1.30244,-5.498429 h 2.79956 c 0.59527,6e-6 1.06075,-0.06153 1.39643,-0.184623 0.33567,-0.123077 0.59079,-0.320009 0.76535,-0.590796 0.17455,-0.270775 0.26182,-0.565054 0.26183,-0.882837 -1e-5,-0.465468 -0.16897,-0.848142 -0.50688,-1.148023 -0.33792,-0.299865 -0.87165,-0.449802 -1.60119,-0.449811 h -3.1151 z" />
          <path
             id="path10300"
             d="m -375.15434,104.26973 v -9.84212 h 7.1164 v 1.161451 h -5.81397 v 3.014401 h 5.44472 v 1.154737 h -5.44472 v 3.350081 h 6.04223 v 1.16145 z" />
          <path
             id="path10302"
             d="m -366.39311,99.476228 c 0,-1.633633 0.43862,-2.912571 1.31586,-3.836815 0.87724,-0.924228 2.0096,-1.386346 3.39708,-1.386356 0.90857,1e-5 1.72762,0.217082 2.45717,0.651218 0.72954,0.434154 1.28565,1.039495 1.66833,1.816025 0.38266,0.776545 0.574,1.657143 0.57401,2.641797 -10e-6,0.998093 -0.20142,1.890993 -0.60422,2.678723 -0.40283,0.78773 -0.97348,1.38412 -1.71197,1.78917 -0.7385,0.40505 -1.53518,0.60758 -2.39003,0.60758 -0.92648,0 -1.75449,-0.22379 -2.48403,-0.67136 -0.72955,-0.44757 -1.2823,-1.05851 -1.65826,-1.83281 -0.37596,-0.7743 -0.56394,-1.59335 -0.56394,-2.457172 z m 1.34272,0.02014 c 0,1.186072 0.31889,2.120382 0.95668,2.802922 0.63779,0.68255 1.43783,1.02382 2.40011,1.02382 0.98018,0 1.78693,-0.34463 2.42025,-1.03389 0.63331,-0.68926 0.94996,-1.6672 0.94997,-2.933838 -1e-5,-0.801149 -0.1354,-1.50048 -0.40617,-2.097996 -0.27079,-0.597502 -0.66689,-1.060739 -1.1883,-1.389713 -0.52143,-0.328957 -1.10663,-0.493439 -1.75561,-0.493448 -0.922,9e-6 -1.71532,0.316666 -2.37996,0.949972 -0.66465,0.633323 -0.99697,1.690712 -0.99697,3.172171 z" />
          <path
             id="path10304"
             d="m -351.93876,101.10763 1.22858,-0.10742 c 0.0582,0.49233 0.19358,0.89627 0.40618,1.2118 0.21259,0.31555 0.54268,0.57066 0.99025,0.76535 0.44757,0.1947 0.95109,0.29205 1.51056,0.29205 0.4968,0 0.93542,-0.0738 1.31586,-0.22155 0.38043,-0.1477 0.66352,-0.35023 0.84927,-0.60758 0.18574,-0.25736 0.27861,-0.53821 0.27861,-0.84256 0,-0.30882 -0.0895,-0.57848 -0.26854,-0.80899 -0.17903,-0.23049 -0.47443,-0.42407 -0.88619,-0.58072 -0.26408,-0.10294 -0.84816,-0.262946 -1.75225,-0.480023 -0.9041,-0.217067 -1.53741,-0.421832 -1.89994,-0.614293 -0.46996,-0.246159 -0.82018,-0.551627 -1.05068,-0.916405 -0.2305,-0.364765 -0.34575,-0.773174 -0.34575,-1.225229 0,-0.496798 0.14098,-0.961154 0.42296,-1.39307 0.28196,-0.431898 0.69373,-0.759745 1.2353,-0.98354 0.54155,-0.223777 1.14354,-0.33567 1.80595,-0.33568 0.72954,1e-5 1.37292,0.117498 1.93016,0.352464 0.55722,0.234985 0.98577,0.580734 1.28565,1.037249 0.29986,0.456532 0.46099,0.973478 0.48338,1.550839 l -1.24873,0.09399 c -0.0671,-0.622118 -0.29429,-1.092069 -0.68143,-1.409854 -0.38716,-0.317767 -0.95893,-0.476655 -1.71532,-0.476664 -0.78773,9e-6 -1.36174,0.144351 -1.72204,0.433026 -0.36029,0.288693 -0.54044,0.63668 -0.54044,1.043963 0,0.353589 0.12756,0.644511 0.38267,0.872766 0.25064,0.228269 0.90522,0.462125 1.96373,0.70157 1.0585,0.239457 1.78469,0.448697 2.17856,0.627721 0.57288,0.264073 0.99584,0.598633 1.26887,1.00368 0.27301,0.40506 0.40952,0.87165 0.40953,1.39978 -1e-5,0.52367 -0.14995,1.01711 -0.44982,1.48035 -0.29988,0.46324 -0.73066,0.82353 -1.29236,1.08089 -0.56171,0.25735 -1.19391,0.38603 -1.89659,0.38603 -0.89067,0 -1.637,-0.1298 -2.23898,-0.38939 -0.60199,-0.25959 -1.07418,-0.6501 -1.41657,-1.17152 -0.34239,-0.52142 -0.52254,-1.1111 -0.54044,-1.76903 z" />
          <path
             id="path10306"
             d="m -342.70758,99.476228 c 0,-1.633633 0.43862,-2.912571 1.31587,-3.836815 0.87723,-0.924228 2.00959,-1.386346 3.39707,-1.386356 0.90857,1e-5 1.72762,0.217082 2.45717,0.651218 0.72954,0.434154 1.28565,1.039495 1.66833,1.816025 0.38267,0.776545 0.574,1.657143 0.57401,2.641797 -1e-5,0.998093 -0.20142,1.890993 -0.60422,2.678723 -0.40282,0.78773 -0.97348,1.38412 -1.71197,1.78917 -0.7385,0.40505 -1.53518,0.60758 -2.39003,0.60758 -0.92648,0 -1.75449,-0.22379 -2.48403,-0.67136 -0.72955,-0.44757 -1.2823,-1.05851 -1.65826,-1.83281 -0.37596,-0.7743 -0.56394,-1.59335 -0.56394,-2.457172 z m 1.34272,0.02014 c 0,1.186072 0.31889,2.120382 0.95669,2.802922 0.63778,0.68255 1.43782,1.02382 2.4001,1.02382 0.98018,0 1.78693,-0.34463 2.42025,-1.03389 0.63331,-0.68926 0.94997,-1.6672 0.94997,-2.933838 0,-0.801149 -0.13539,-1.50048 -0.40617,-2.097996 -0.27079,-0.597502 -0.66689,-1.060739 -1.1883,-1.389713 -0.52143,-0.328957 -1.10663,-0.493439 -1.75561,-0.493448 -0.922,9e-6 -1.71532,0.316666 -2.37996,0.949972 -0.66465,0.633323 -0.99697,1.690712 -0.99697,3.172171 z" />
          <path
             id="path10308"
             d="m -325.16497,94.42761 h 1.30244 v 5.68641 c -1e-5,0.98914 -0.11191,1.77463 -0.33568,2.35647 -0.2238,0.58184 -0.62773,1.05515 -1.21181,1.41992 -0.58409,0.36477 -1.35055,0.54716 -2.2994,0.54716 -0.922,0 -1.67616,-0.15889 -2.26248,-0.47667 -0.58632,-0.31777 -1.0048,-0.77765 -1.25544,-1.37964 -0.25064,-0.60198 -0.37596,-1.42439 -0.37596,-2.46724 v -5.68641 h 1.30243 v 5.6797 c 0,0.85486 0.0794,1.48482 0.23834,1.88987 0.15888,0.40506 0.4319,0.71724 0.81905,0.93655 0.38715,0.21931 0.86046,0.32896 1.41993,0.32896 0.9578,0 1.64035,-0.21707 2.04764,-0.65122 0.40729,-0.43414 0.61093,-1.26886 0.61094,-2.50416 z" />
          <path
             id="path10310"
             d="m -321.70076,104.26973 v -9.84212 h 1.33601 l 5.16946,7.72734 v -7.72734 h 1.24873 v 9.84212 h -1.33601 l -5.16946,-7.734054 v 7.734054 z" />
          <path
             id="path10312"
             d="m -311.75122,104.26973 v -9.84212 h 3.39036 c 0.76535,1e-5 1.34943,0.047 1.75225,0.140985 0.56393,0.129806 1.04507,0.364781 1.44342,0.704927 0.51918,0.43863 0.90745,0.999214 1.16481,1.681754 0.25734,0.682554 0.38602,1.462449 0.38603,2.339685 -10e-6,0.747449 -0.0873,1.409859 -0.26183,1.987219 -0.17456,0.57737 -0.39835,1.05516 -0.67136,1.43335 -0.27303,0.3782 -0.57178,0.67584 -0.89626,0.89291 -0.3245,0.21707 -0.71613,0.38156 -1.17488,0.49345 -0.45877,0.11189 -0.98578,0.16784 -1.58105,0.16784 z m 1.30244,-1.16145 h 2.10135 c 0.64897,0 1.15809,-0.0604 1.52734,-0.18127 0.36924,-0.12084 0.66352,-0.29092 0.88284,-0.51023 0.30882,-0.30882 0.54939,-0.72395 0.72171,-1.24537 0.17231,-0.52142 0.25846,-1.15362 0.25847,-1.89659 -1e-5,-1.02941 -0.16896,-1.820494 -0.50687,-2.373253 -0.33793,-0.552744 -0.74858,-0.92311 -1.23195,-1.111099 -0.34911,-0.134263 -0.91081,-0.201399 -1.68511,-0.201407 h -2.06778 z" />
        </g>
        <g
           id="text10354"
           style="font-style:normal;font-weight:normal;font-size:12.1483px;font-family:'Bitstream Vera Sans';fill:#eeeeec;fill-opacity:1;stroke:none"
           transform="scale(0.97327124,1.0274628)">
          <path
             id="path10359"
             d="m -692.37897,242.99635 v -8.69602 h 3.26249 c 0.66436,1e-5 1.19723,0.088 1.59862,0.26397 0.40138,0.17598 0.71577,0.44687 0.94316,0.81265 0.22738,0.36581 0.34107,0.74841 0.34108,1.14781 -10e-6,0.37173 -0.10085,0.72171 -0.30252,1.04993 -0.20169,0.32823 -0.50619,0.59318 -0.9135,0.79486 0.52595,0.15423 0.9303,0.41721 1.21305,0.78893 0.28274,0.37173 0.42412,0.81068 0.42413,1.31686 -10e-6,0.40732 -0.086,0.78596 -0.25804,1.13594 -0.17203,0.34997 -0.38458,0.61987 -0.63767,0.80969 -0.25309,0.18982 -0.57044,0.33317 -0.95205,0.43005 -0.38162,0.0969 -0.84924,0.14533 -1.40287,0.14533 z m 1.15077,-5.04203 h 1.88038 c 0.51013,1e-5 0.87593,-0.0336 1.09739,-0.10084 0.29263,-0.087 0.51309,-0.23133 0.66139,-0.43302 0.14829,-0.20168 0.22244,-0.45477 0.22244,-0.75927 0,-0.28868 -0.0692,-0.54275 -0.20761,-0.76224 -0.13841,-0.21947 -0.33614,-0.36974 -0.59318,-0.45081 -0.25705,-0.0811 -0.69798,-0.1216 -1.32279,-0.12161 h -1.73802 z m 0,4.01583 h 2.16511 c 0.37172,0 0.63272,-0.0138 0.783,-0.0415 0.26495,-0.0474 0.4864,-0.12655 0.66436,-0.23727 0.17795,-0.11073 0.32427,-0.27188 0.43895,-0.48345 0.11468,-0.21156 0.17202,-0.45575 0.17202,-0.73257 0,-0.32427 -0.083,-0.60603 -0.24913,-0.84528 -0.1661,-0.23925 -0.39645,-0.40732 -0.69106,-0.50421 -0.29461,-0.0969 -0.71874,-0.14532 -1.27237,-0.14533 h -2.01088 z" />
          <path
             id="path10361"
             d="m -684.91929,242.99635 3.3396,-8.69602 h 1.23975 l 3.55908,8.69602 h -1.31093 l -1.01433,-2.63372 h -3.6362 l -0.95502,2.63372 z m 2.50915,-3.57094 h 2.94811 l -0.90757,-2.40831 c -0.27682,-0.73159 -0.48246,-1.33267 -0.61691,-1.80327 -0.11073,0.5576 -0.26693,1.11123 -0.46861,1.6609 z" />
          <path
             id="path10363"
             d="m -673.38447,242.99635 v -7.66982 h -2.86506 v -1.0262 h 6.89276 v 1.0262 h -2.87693 v 7.66982 z" />
          <path
             id="path10365"
             d="m -665.57904,242.99635 v -7.66982 h -2.86506 v -1.0262 h 6.89275 v 1.0262 h -2.87692 v 7.66982 z" />
          <path
             id="path10367"
             d="m -660.72007,242.99635 v -8.69602 h 6.28771 v 1.0262 h -5.13694 v 2.66338 h 4.81069 v 1.02027 h -4.81069 v 2.95997 h 5.33862 v 1.0262 z" />
          <path
             id="path10369"
             d="m -653.11637,242.99635 v -8.69602 h 3.85567 c 0.77508,1e-5 1.36431,0.0781 1.76768,0.23431 0.40335,0.15621 0.72565,0.43204 0.96688,0.82748 0.24122,0.39547 0.36183,0.83244 0.36184,1.31093 -10e-6,0.61692 -0.19971,1.13694 -0.59911,1.56007 -0.39942,0.42314 -1.01632,0.69204 -1.85072,0.80672 0.30449,0.14632 0.53583,0.29066 0.69402,0.43302 0.33613,0.30846 0.65446,0.69403 0.95502,1.1567 l 1.51261,2.36679 h -1.44736 l -1.15077,-1.8092 c -0.33614,-0.52199 -0.61296,-0.9214 -0.83046,-1.19822 -0.2175,-0.27681 -0.41226,-0.47059 -0.58428,-0.58132 -0.17202,-0.11072 -0.34701,-0.18783 -0.52496,-0.23134 -0.13051,-0.0277 -0.34405,-0.0415 -0.64064,-0.0415 h -1.33465 v 3.8616 z m 1.15077,-4.85814 h 2.47356 c 0.52595,0 0.93722,-0.0544 1.23381,-0.16313 0.29659,-0.10874 0.522,-0.28274 0.67623,-0.522 0.15422,-0.23924 0.23133,-0.49925 0.23134,-0.78003 -1e-5,-0.41126 -0.14929,-0.74937 -0.44785,-1.01434 -0.29858,-0.26494 -0.77015,-0.39742 -1.41474,-0.39743 h -2.75235 z" />
          <path
             id="path10371"
             d="m -642.53661,242.99635 v -3.68365 l -3.35147,-5.01237 h 1.3999 l 1.71429,2.62186 c 0.31636,0.49037 0.61098,0.98073 0.88384,1.47109 0.261,-0.45477 0.57736,-0.96688 0.94909,-1.53634 l 1.68463,-2.55661 h 1.34059 l -3.4701,5.01237 v 3.68365 z" />
        </g>
      </g>
    </g>
  </g>
</svg>
